<svg xmlns="http://www.w3.org/2000/svg" viewBox="0 0 48 48" fill="none" stroke-linecap="round" stroke-linejoin="round"><g stroke="#6B9A75" stroke-width="2" fill="none"><path d="M24 38 C 18 36, 14 28, 14 18 C 18 18, 22 24, 24 32"></path><path d="M24 38 C 30 36, 34 28, 34 18 C 30 18, 26 24, 24 32"></path><path d="M24 38 C 22 30, 22 22, 24 12 C 26 22, 26 30, 24 38"></path><path d="M24 38 C 20 36, 17 30, 18 22"></path><path d="M24 38 C 28 36, 31 30, 30 22"></path></g><path d="M16 38 L18 44 L30 44 L32 38 Z" fill="#D9B08C" stroke="#A87554" stroke-width="2"></path></svg>