<svg xmlns="http://www.w3.org/2000/svg" viewBox="0 0 48 48" fill="none" stroke-linecap="round" stroke-linejoin="round"><g stroke="#2F4A36" stroke-width="2" fill="none"><path d="M24 38 L24 24"></path><path d="M24 32 C 22 28, 18 26, 16 22"></path><path d="M24 24 C 24 18, 28 12, 36 10 C 38 14, 38 20, 34 24 C 32 26, 28 26, 24 24 Z"></path><path d="M28 18 L32 20" opacity="0.6"></path><path d="M27 22 L31 23" opacity="0.6"></path><path d="M16 22 C 12 22, 10 18, 12 14 C 16 12, 20 16, 20 20"></path></g><path d="M16 38 L14 46 L34 46 L32 38 Z" fill="#DDD1B8" stroke="#8A7A5E" stroke-width="2"></path><path d="M16 38 L32 38" stroke="#8A7A5E" stroke-width="2"></path></svg>