
<svg xmlns="http://www.w3.org/2000/svg" viewBox="0 0 48 48" fill="none" stroke-linecap="round" stroke-linejoin="round">
  <g stroke="#4E7A5C" stroke-width="2" fill="none">
    
    <path d="M24 42 C 22 34, 26 26, 24 18 C 22 12, 26 8, 26 6"></path>
    
    
    <path d="M23 36 C 19 35, 16 33, 15 30"></path>
    <path d="M23 36 C 27 35, 30 33, 31 30"></path>
    
    <path d="M25 28 C 21 27, 18 25, 17 22"></path>
    <path d="M25 28 C 29 27, 32 25, 33 22"></path>
    
    <path d="M24 18 C 21 17, 19 15, 19 12"></path>
    <path d="M24 18 C 27 17, 29 15, 29 12"></path>
    
    <path d="M26 8 C 28 6, 30 6, 31 4"></path>
  </g>
</svg>