<svg xmlns="http://www.w3.org/2000/svg" viewBox="0 0 48 48" fill="none" stroke-linecap="round" stroke-linejoin="round"><g stroke="#2F4A36" stroke-width="2"><path d="M24 42 L24 26"></path><path d="M16 42 L32 42" opacity="0.4"></path><path d="M14 24 C 8 24, 8 18, 12 16 C 10 10, 18 6, 22 10 C 24 6, 32 8, 32 14 C 38 14, 40 22, 34 24 C 32 28, 16 28, 14 24 Z"></path><path d="M18 18 C 20 16, 22 16, 24 18" opacity="0.5"></path><path d="M26 20 C 28 18, 30 18, 32 20" opacity="0.5"></path><path d="M22 26 L22 30 L24 26"></path><path d="M26 26 L26 32 L24 26"></path></g></svg>