<svg xmlns="http://www.w3.org/2000/svg" viewBox="0 0 48 48" fill="none" stroke-linecap="round" stroke-linejoin="round"><g stroke="#2F4A36" stroke-width="2" fill="none"><path d="M24 42 C 18 36, 14 28, 14 16"></path><path d="M24 42 C 30 36, 34 28, 34 16"></path><path d="M24 42 L24 14"></path><path d="M22 18 L17 18"></path><path d="M22 22 L16 22"></path><path d="M22 26 L16 26"></path><path d="M22 30 L18 30"></path><path d="M26 18 L31 18"></path><path d="M26 22 L32 22"></path><path d="M26 26 L32 26"></path><path d="M26 30 L30 30"></path><path d="M14 16 L18 16"></path><path d="M34 16 L30 16"></path></g></svg>